<svg fill="#fff" height="81" viewBox="0 0 96 81" width="96" xmlns="http://www.w3.org/2000/svg"><path d="m59.355 32.789c0 1.778 1.447 3.223 3.224 3.223 1.78 0 3.226-1.445 3.226-3.223 0-1.777-1.446-3.227-3.226-3.227-1.777 0-3.224 1.45-3.224 3.227zm1.761 0c0-.808.656-1.466 1.463-1.466.809 0 1.466.658 1.466 1.466 0 .807-.657 1.467-1.466 1.467-.807 0-1.463-.66-1.463-1.467z"/><path d="m22.701 32.789c0 1.778 1.449 3.223 3.228 3.223 1.776 0 3.221-1.445 3.221-3.223 0-1.777-1.445-3.227-3.221-3.227-1.779 0-3.228 1.45-3.228 3.227zm1.759 0c0-.808.657-1.466 1.469-1.466.806 0 1.463.658 1.463 1.466 0 .807-.657 1.467-1.463 1.467-.812 0-1.469-.66-1.469-1.467z"/><path d="m44.693 32.789c0 1.778 1.445 3.223 3.224 3.223 1.78 0 3.229-1.445 3.229-3.223 0-1.777-1.449-3.227-3.229-3.227-1.779 0-3.224 1.45-3.224 3.227zm1.757 0c0-.808.659-1.466 1.467-1.466.811 0 1.469.658 1.469 1.466 0 .807-.658 1.467-1.469 1.467-.808 0-1.467-.66-1.467-1.467z"/><path d="m52.026 32.789c0 1.778 1.446 3.223 3.225 3.223 1.78 0 3.225-1.445 3.225-3.223 0-1.777-1.445-3.227-3.225-3.227-1.779 0-3.225 1.45-3.225 3.227zm1.759 0c0-.808.655-1.466 1.466-1.466.807 0 1.465.658 1.465 1.466 0 .807-.658 1.467-1.465 1.467-.811 0-1.466-.66-1.466-1.467z"/><path d="m74.03 32.789c0 1.778 1.449 3.223 3.226 3.223s3.226-1.445 3.226-3.223c0-1.777-1.449-3.227-3.226-3.227s-3.226 1.45-3.226 3.227zm1.758 0c0-.808.661-1.466 1.468-1.466.809 0 1.467.658 1.467 1.466 0 .807-.658 1.467-1.467 1.467-.807 0-1.468-.66-1.468-1.467z"/><path d="m37.36 25.749c0 1.781 1.448 3.226 3.229 3.226 1.777 0 3.224-1.445 3.224-3.226 0-1.777-1.447-3.225-3.224-3.225-1.781 0-3.229 1.448-3.229 3.225zm1.76 0c0-.806.658-1.464 1.469-1.464.807 0 1.466.658 1.466 1.464 0 .812-.659 1.466-1.466 1.466-.811 0-1.469-.654-1.469-1.466z"/><path d="m52.026 39.825c0 1.781 1.446 3.224 3.225 3.224 1.78 0 3.225-1.443 3.225-3.224 0-1.78-1.445-3.227-3.225-3.227-1.779 0-3.225 1.447-3.225 3.227zm1.759 0c0-.811.655-1.465 1.466-1.465.807 0 1.465.654 1.465 1.465 0 .809-.658 1.469-1.465 1.469-.811 0-1.466-.66-1.466-1.469z"/><path d="m37.358 39.825c0 1.781 1.449 3.224 3.229 3.224 1.775 0 3.223-1.443 3.223-3.224 0-1.78-1.448-3.227-3.223-3.227-1.78 0-3.229 1.447-3.229 3.227zm1.761 0c0-.811.656-1.465 1.468-1.465.806 0 1.463.654 1.463 1.465 0 .809-.657 1.469-1.463 1.469-.812 0-1.468-.66-1.468-1.469z"/><path d="m44.693 18.116c0 1.779 1.445 3.224 3.224 3.224 1.78 0 3.229-1.445 3.229-3.224s-1.449-3.227-3.229-3.227c-1.779 0-3.224 1.448-3.224 3.227zm1.757 0c0-.809.659-1.467 1.467-1.467.811 0 1.469.658 1.469 1.467 0 .807-.658 1.465-1.469 1.465-.808 0-1.467-.658-1.467-1.465z"/><path d="m74.03 18.712c0 1.779 1.449 3.226 3.226 3.226s3.226-1.447 3.226-3.226c0-1.778-1.449-3.227-3.226-3.227s-3.226 1.449-3.226 3.227zm1.758 0c0-.808.661-1.465 1.468-1.465.809 0 1.467.657 1.467 1.465 0 .806-.658 1.465-1.467 1.465-.807 0-1.468-.659-1.468-1.465z"/><path d="m59.386 25.749c0 1.781 1.446 3.226 3.226 3.226 1.779 0 3.224-1.445 3.224-3.226 0-1.777-1.445-3.225-3.224-3.225-1.78 0-3.226 1.448-3.226 3.225zm1.759 0c0-.806.658-1.464 1.467-1.464.807 0 1.466.658 1.466 1.464 0 .812-.659 1.466-1.466 1.466-.809 0-1.467-.654-1.467-1.466z"/><path d="m15.369 32.789c0 1.778 1.447 3.223 3.225 3.223s3.227-1.445 3.227-3.223c0-1.777-1.449-3.227-3.227-3.227s-3.225 1.45-3.225 3.227zm1.758 0c0-.808.66-1.466 1.467-1.466.809 0 1.467.658 1.467 1.466 0 .807-.658 1.467-1.467 1.467-.807 0-1.467-.66-1.467-1.467z"/><path d="m30.025 32.789c0 1.778 1.449 3.223 3.228 3.223 1.776 0 3.223-1.445 3.223-3.223 0-1.777-1.447-3.227-3.223-3.227-1.779 0-3.228 1.45-3.228 3.227zm1.758 0c0-.808.658-1.466 1.47-1.466.805 0 1.462.658 1.462 1.466 0 .807-.657 1.467-1.462 1.467-.812 0-1.47-.66-1.47-1.467z"/><path d="m44.747 3.883c0 1.78 1.448 3.227 3.227 3.227 1.78 0 3.226-1.447 3.226-3.227 0-1.779-1.446-3.225-3.226-3.225-1.779 0-3.227 1.446-3.227 3.225zm1.761 0c0-.81.655-1.464 1.466-1.464.809 0 1.467.654 1.467 1.464s-.658 1.466-1.467 1.466c-.811 0-1.466-.656-1.466-1.466z"/><path d="m.707 32.789c0 1.778 1.447 3.223 3.227 3.223 1.777 0 3.225-1.445 3.225-3.223 0-1.777-1.448-3.227-3.225-3.227-1.78 0-3.227 1.45-3.227 3.227zm1.76 0c0-.808.657-1.466 1.467-1.466.808 0 1.465.658 1.465 1.466 0 .807-.657 1.467-1.465 1.467-.81 0-1.467-.66-1.467-1.467z"/><path d="m15.369 25.738c0 1.78 1.447 3.224 3.225 3.224s3.227-1.444 3.227-3.224c0-1.779-1.449-3.223-3.227-3.223s-3.225 1.444-3.225 3.223zm1.758 0c0-.809.66-1.464 1.467-1.464.809 0 1.467.655 1.467 1.464 0 .808-.658 1.467-1.467 1.467-.807 0-1.467-.659-1.467-1.467z"/><path d="m66.699 32.789c0 1.778 1.444 3.223 3.224 3.223 1.779 0 3.226-1.445 3.226-3.223 0-1.777-1.447-3.227-3.226-3.227-1.78 0-3.224 1.45-3.224 3.227zm1.76 0c0-.808.659-1.466 1.464-1.466.811 0 1.465.658 1.465 1.466 0 .807-.654 1.467-1.465 1.467-.805 0-1.464-.66-1.464-1.467z"/><path d="m59.355 46.866c0 1.775 1.447 3.223 3.224 3.223 1.78 0 3.226-1.448 3.226-3.223 0-1.779-1.446-3.231-3.226-3.231-1.777 0-3.224 1.452-3.224 3.231zm1.761 0c0-.811.656-1.469 1.463-1.469.809 0 1.466.658 1.466 1.469 0 .806-.657 1.459-1.466 1.459-.807 0-1.463-.653-1.463-1.459z"/><path d="m44.693 25.749c0 1.781 1.445 3.226 3.224 3.226 1.78 0 3.229-1.445 3.229-3.226 0-1.777-1.449-3.225-3.229-3.225-1.779 0-3.224 1.448-3.224 3.225zm1.757 0c0-.806.659-1.464 1.467-1.464.811 0 1.469.658 1.469 1.464 0 .812-.658 1.466-1.469 1.466-.808 0-1.467-.654-1.467-1.466z"/><path d="m88.453 32.789c0 1.778 1.447 3.223 3.225 3.223 1.779 0 3.228-1.445 3.228-3.223 0-1.777-1.449-3.227-3.228-3.227-1.778 0-3.225 1.45-3.225 3.227zm1.758 0c0-.808.661-1.466 1.467-1.466.809 0 1.465.658 1.465 1.466 0 .807-.656 1.467-1.465 1.467-.806 0-1.467-.66-1.467-1.467z"/><path d="m12.237 59.079h3.465l1.127 4.649h.021l1.131-4.649h3.465v7.904h-2.304v-5.067h-.022l-1.374 5.067h-1.813l-1.374-5.067h-.021v5.067h-2.301z"/><path d="m22.94 59.079h2.434v7.904h-2.434z"/><path d="m26.879 59.079h2.491l2.301 4.227h.023v-4.227h2.302v7.904h-2.366l-2.427-4.318h-.02v4.318h-2.304z"/><path d="m35.303 59.079h2.49l2.302 4.227h.024v-4.227h2.298v7.904h-2.366l-2.425-4.318h-.02v4.318h-2.303z"/><path d="m43.714 59.079h6.546v2.027h-4.109v.983h3.731v1.883h-3.731v.985h4.228v2.026h-6.665z"/><path d="m53.559 64.326c0 .199.033.378.087.519.178.475.71.576 1.164.576.398 0 1.006-.13 1.006-.717 0-.41-.345-.521-1.704-.911-1.253-.353-2.678-.697-2.678-2.29 0-1.826 1.561-2.612 3.187-2.612 1.715 0 3.231.653 3.298 2.581h-2.3c.042-.3-.089-.5-.29-.633-.2-.143-.476-.201-.72-.201-.332 0-.872.091-.872.534.043.565 1.17.685 2.29.994 1.117.31 2.225.83 2.225 2.282 0 2.059-1.895 2.723-3.655 2.723-.897 0-3.451-.321-3.475-2.845z"/><path d="m63.023 58.891c2.402 0 4.005 1.726 4.005 4.14 0 2.413-1.603 4.14-4.005 4.14-2.403 0-4.011-1.727-4.011-4.14 0-2.414 1.608-4.14 4.011-4.14zm0 6.309c.619 0 1.57-.409 1.57-2.169s-.951-2.169-1.57-2.169c-.622 0-1.574.409-1.574 2.169s.952 2.169 1.574 2.169z"/><path d="m69.373 61.106h-2.21v-2.027h6.862v2.027h-2.215v5.877h-2.437z"/><path d="m76.39 59.079h2.382l2.878 7.904h-2.527l-.331-1.129h-2.512l-.352 1.129h-2.447zm1.917 5.081-.708-2.435h-.025l-.763 2.435z"/><path d="m6.315 71.729h4.072c2.148 0 2.9 1.572 2.9 2.701 0 1.916-1.284 2.809-3.098 2.809h-1.439v2.393h-2.435zm2.435 3.632h.939c.633 0 1.297-.045 1.297-.844 0-.717-.554-.762-1.153-.762h-1.083z"/><path d="m21.301 76.576c0 2.192-1.184 3.245-3.598 3.245-2.412 0-3.607-1.053-3.607-3.245v-4.847h2.435v4.308c0 .805 0 1.812 1.184 1.812 1.151 0 1.151-1.007 1.151-1.812v-4.308h2.435z"/><path d="m22.451 71.729h4.328c2.08 0 2.524 1.172 2.524 1.981 0 .799-.387 1.229-.975 1.55.71.245 1.375.809 1.375 1.973 0 1.579-1.375 2.399-2.769 2.399h-4.483zm2.436 3.075h1.284c.508 0 .829-.142.829-.652 0-.397-.33-.541-.829-.541h-1.284zm0 2.946h1.426c.511 0 .954-.144.954-.752 0-.464-.278-.72-.853-.72h-1.527z"/><path d="m30.725 71.729h2.436v5.877h3.498v2.026h-5.934z"/><path d="m37.499 71.729h2.436v7.903h-2.436z"/><path d="m46.187 74.673c-.044-.287-.264-1.16-1.272-1.16-1.138 0-1.504 1.106-1.504 2.168 0 1.06.366 2.168 1.504 2.168.821 0 1.14-.574 1.283-1.315h2.393c0 1.591-1.295 3.287-3.608 3.287-2.558 0-4.008-1.805-4.008-4.14 0-2.489 1.57-4.14 4.008-4.14 2.169.012 3.364 1.151 3.575 3.132z"/><path d="m52.515 71.729h4.639c1.383 0 2.578.763 2.578 2.258 0 .817-.375 1.683-1.186 1.98.665.256 1.074.986 1.164 1.971.034.387.045 1.331.265 1.694h-2.435c-.122-.398-.166-.808-.199-1.22-.065-.751-.133-1.538-1.095-1.538h-1.294v2.758h-2.437zm2.437 3.453h1.274c.45 0 1.071-.077 1.071-.785 0-.498-.276-.786-1.207-.786h-1.138z"/><path d="m63.151 71.729h2.383l2.879 7.903h-2.528l-.331-1.128h-2.514l-.351 1.128h-2.446zm1.918 5.08-.709-2.435h-.024l-.761 2.435z"/><path d="m68.629 71.729h3.997c2.63 0 3.559 1.951 3.559 3.941 0 2.426-1.284 3.962-4.036 3.962h-3.52zm2.433 5.877h.951c1.517 0 1.737-1.227 1.737-1.969 0-.499-.153-1.882-1.913-1.882h-.775z"/><path d="m77.032 71.729h2.437v7.903h-2.437z"/><path d="m84.298 71.541c2.405 0 4.012 1.725 4.012 4.14s-1.607 4.14-4.012 4.14c-2.401 0-4.007-1.725-4.007-4.14s1.606-4.14 4.007-4.14zm0 6.308c.623 0 1.572-.412 1.572-2.168 0-1.76-.949-2.168-1.572-2.168-.616 0-1.569.408-1.569 2.168 0 1.756.953 2.168 1.569 2.168z"/><path d="m90.999 73.335c.328 0 .653-.011.653-.381 0-.305-.252-.377-.516-.377h-.496v.758zm-.359 1.199h-.266v-2.185h.837c.493 0 .712.214.712.605 0 .385-.255.559-.549.61l.651.97h-.317l-.614-.97h-.454zm-1.179-1.091c0 .904.68 1.62 1.597 1.62.916 0 1.598-.716 1.598-1.62 0-.905-.682-1.623-1.598-1.623-.917 0-1.597.718-1.597 1.623zm3.489 0c0 1.06-.824 1.889-1.892 1.889-1.067 0-1.891-.829-1.891-1.889 0-1.065.824-1.892 1.891-1.892 1.068 0 1.892.827 1.892 1.892z"/></svg>